<mxfile host="app.diagrams.net" modified="2023-11-16T11:56:33.747Z" agent="Mozilla/5.0 (Windows NT 10.0; Win64; x64; rv:109.0) Gecko/20100101 Firefox/119.0" etag="uM40LUFYOJLxZO4DcEei" version="22.1.2" type="device">
  <diagram name="Seite-1" id="6ApZolmKOnoj5mbXyTo5">
    <mxGraphModel dx="1434" dy="726" grid="1" gridSize="10" guides="1" tooltips="1" connect="1" arrows="1" fold="1" page="1" pageScale="1" pageWidth="827" pageHeight="1169" math="0" shadow="0">
      <root>
        <mxCell id="0" />
        <mxCell id="1" parent="0" />
        <mxCell id="ESVexAJs5nqCZsP6G0nZ-2" value="" style="shape=image;imageAspect=0;aspect=fixed;verticalLabelPosition=bottom;verticalAlign=top;image=https://m.media-amazon.com/images/I/715lLPSw2GL._AC_UF894,1000_QL80_.jpg;" vertex="1" parent="1">
          <mxGeometry x="30" y="530" width="115.71" height="83" as="geometry" />
        </mxCell>
        <mxCell id="ESVexAJs5nqCZsP6G0nZ-3" value="" style="shape=image;imageAspect=0;aspect=fixed;verticalLabelPosition=bottom;verticalAlign=top;image=https://m.media-amazon.com/images/I/715lLPSw2GL._AC_UF894,1000_QL80_.jpg;" vertex="1" parent="1">
          <mxGeometry x="164.29" y="530" width="115.71" height="83" as="geometry" />
        </mxCell>
        <mxCell id="ESVexAJs5nqCZsP6G0nZ-4" value="Temperatursensor 1" style="text;html=1;strokeColor=none;fillColor=none;align=center;verticalAlign=middle;whiteSpace=wrap;rounded=0;" vertex="1" parent="1">
          <mxGeometry x="30" y="720" width="110" height="60" as="geometry" />
        </mxCell>
        <mxCell id="ESVexAJs5nqCZsP6G0nZ-5" value="Temperatursensor 2" style="text;html=1;strokeColor=none;fillColor=none;align=center;verticalAlign=middle;whiteSpace=wrap;rounded=0;" vertex="1" parent="1">
          <mxGeometry x="164.29000000000002" y="720" width="110" height="50" as="geometry" />
        </mxCell>
        <mxCell id="ESVexAJs5nqCZsP6G0nZ-6" value="" style="rounded=0;whiteSpace=wrap;html=1;" vertex="1" parent="1">
          <mxGeometry x="285.71" y="10" width="254.29" height="360" as="geometry" />
        </mxCell>
        <mxCell id="ESVexAJs5nqCZsP6G0nZ-7" value="PostgresQL" style="rounded=0;whiteSpace=wrap;html=1;" vertex="1" parent="1">
          <mxGeometry x="351" y="30" width="120" height="60" as="geometry" />
        </mxCell>
        <mxCell id="ESVexAJs5nqCZsP6G0nZ-8" value="&lt;div&gt;.NET Core&amp;nbsp;&lt;/div&gt;&lt;div&gt;HTTP SERVER&lt;/div&gt;" style="rounded=0;whiteSpace=wrap;html=1;" vertex="1" parent="1">
          <mxGeometry x="351" y="130" width="120" height="60" as="geometry" />
        </mxCell>
        <mxCell id="ESVexAJs5nqCZsP6G0nZ-9" value="&lt;div&gt;Webserver&lt;/div&gt;" style="text;html=1;strokeColor=none;fillColor=none;align=center;verticalAlign=middle;whiteSpace=wrap;rounded=0;" vertex="1" parent="1">
          <mxGeometry x="285.71000000000004" y="380" width="60" height="30" as="geometry" />
        </mxCell>
        <mxCell id="ESVexAJs5nqCZsP6G0nZ-10" value="" style="endArrow=classic;startArrow=classic;html=1;rounded=0;entryX=0.5;entryY=1;entryDx=0;entryDy=0;exitX=0.5;exitY=0;exitDx=0;exitDy=0;" edge="1" parent="1" source="ESVexAJs5nqCZsP6G0nZ-8" target="ESVexAJs5nqCZsP6G0nZ-7">
          <mxGeometry width="50" height="50" relative="1" as="geometry">
            <mxPoint x="390" y="310" as="sourcePoint" />
            <mxPoint x="440" y="260" as="targetPoint" />
          </mxGeometry>
        </mxCell>
        <mxCell id="ESVexAJs5nqCZsP6G0nZ-12" value="Webseite" style="rounded=0;whiteSpace=wrap;html=1;" vertex="1" parent="1">
          <mxGeometry x="351" y="230" width="120" height="60" as="geometry" />
        </mxCell>
        <mxCell id="ESVexAJs5nqCZsP6G0nZ-16" value="" style="endArrow=classic;startArrow=classic;html=1;rounded=0;entryX=0.5;entryY=1;entryDx=0;entryDy=0;" edge="1" parent="1" target="ESVexAJs5nqCZsP6G0nZ-8">
          <mxGeometry width="50" height="50" relative="1" as="geometry">
            <mxPoint x="411" y="230" as="sourcePoint" />
            <mxPoint x="440" y="320" as="targetPoint" />
          </mxGeometry>
        </mxCell>
        <mxCell id="ESVexAJs5nqCZsP6G0nZ-17" value="" style="endArrow=classic;html=1;rounded=0;exitX=0.5;exitY=0;exitDx=0;exitDy=0;entryX=0;entryY=0.5;entryDx=0;entryDy=0;" edge="1" parent="1" source="ESVexAJs5nqCZsP6G0nZ-2" target="ESVexAJs5nqCZsP6G0nZ-6">
          <mxGeometry width="50" height="50" relative="1" as="geometry">
            <mxPoint x="390" y="400" as="sourcePoint" />
            <mxPoint x="440" y="350" as="targetPoint" />
          </mxGeometry>
        </mxCell>
        <mxCell id="ESVexAJs5nqCZsP6G0nZ-21" value="&lt;font style=&quot;font-size: 16px;&quot;&gt;&lt;br&gt;&lt;/font&gt;" style="edgeLabel;html=1;align=center;verticalAlign=middle;resizable=0;points=[];" vertex="1" connectable="0" parent="ESVexAJs5nqCZsP6G0nZ-17">
          <mxGeometry x="-0.0101" y="-3" relative="1" as="geometry">
            <mxPoint x="-1" as="offset" />
          </mxGeometry>
        </mxCell>
        <mxCell id="ESVexAJs5nqCZsP6G0nZ-22" value="&lt;div style=&quot;font-size: 12px;&quot;&gt;&lt;font style=&quot;font-size: 12px;&quot;&gt;HTTP 1.1 POST&lt;/font&gt;&lt;/div&gt;&lt;div style=&quot;font-size: 12px;&quot;&gt;&lt;font style=&quot;font-size: 12px;&quot;&gt;v1/sensor&lt;br&gt;&lt;/font&gt;&lt;/div&gt;" style="edgeLabel;html=1;align=center;verticalAlign=middle;resizable=0;points=[];" vertex="1" connectable="0" parent="ESVexAJs5nqCZsP6G0nZ-17">
          <mxGeometry x="-0.0137" y="-5" relative="1" as="geometry">
            <mxPoint x="-10" y="105" as="offset" />
          </mxGeometry>
        </mxCell>
        <mxCell id="ESVexAJs5nqCZsP6G0nZ-18" value="" style="endArrow=classic;html=1;rounded=0;exitX=0.5;exitY=0;exitDx=0;exitDy=0;entryX=0;entryY=0.5;entryDx=0;entryDy=0;" edge="1" parent="1" source="ESVexAJs5nqCZsP6G0nZ-3" target="ESVexAJs5nqCZsP6G0nZ-6">
          <mxGeometry width="50" height="50" relative="1" as="geometry">
            <mxPoint x="390" y="400" as="sourcePoint" />
            <mxPoint x="440" y="350" as="targetPoint" />
          </mxGeometry>
        </mxCell>
        <mxCell id="ESVexAJs5nqCZsP6G0nZ-27" value="" style="sketch=0;outlineConnect=0;fontColor=#232F3E;gradientColor=none;fillColor=#7AA116;strokeColor=none;dashed=0;verticalLabelPosition=bottom;verticalAlign=top;align=center;html=1;fontSize=12;fontStyle=0;aspect=fixed;pointerEvents=1;shape=mxgraph.aws4.iot_thing_temperature_sensor;" vertex="1" parent="1">
          <mxGeometry x="30.000000000000014" y="638" width="78" height="78" as="geometry" />
        </mxCell>
        <mxCell id="ESVexAJs5nqCZsP6G0nZ-28" value="" style="sketch=0;outlineConnect=0;fontColor=#232F3E;gradientColor=none;fillColor=#7AA116;strokeColor=none;dashed=0;verticalLabelPosition=bottom;verticalAlign=top;align=center;html=1;fontSize=12;fontStyle=0;aspect=fixed;pointerEvents=1;shape=mxgraph.aws4.iot_thing_temperature_sensor;" vertex="1" parent="1">
          <mxGeometry x="164.29000000000002" y="638" width="78" height="78" as="geometry" />
        </mxCell>
        <mxCell id="ESVexAJs5nqCZsP6G0nZ-29" value="" style="endArrow=classic;html=1;rounded=0;entryX=0.363;entryY=1.024;entryDx=0;entryDy=0;entryPerimeter=0;" edge="1" parent="1" target="ESVexAJs5nqCZsP6G0nZ-2">
          <mxGeometry width="50" height="50" relative="1" as="geometry">
            <mxPoint x="72.48976562500002" y="638" as="sourcePoint" />
            <mxPoint x="79.85500000000002" y="613" as="targetPoint" />
          </mxGeometry>
        </mxCell>
        <mxCell id="ESVexAJs5nqCZsP6G0nZ-30" value="" style="endArrow=classic;html=1;rounded=0;entryX=0.369;entryY=0.988;entryDx=0;entryDy=0;entryPerimeter=0;" edge="1" parent="1" source="ESVexAJs5nqCZsP6G0nZ-28" target="ESVexAJs5nqCZsP6G0nZ-3">
          <mxGeometry width="50" height="50" relative="1" as="geometry">
            <mxPoint x="390" y="460" as="sourcePoint" />
            <mxPoint x="230" y="620" as="targetPoint" />
          </mxGeometry>
        </mxCell>
        <mxCell id="ESVexAJs5nqCZsP6G0nZ-31" value="" style="shape=image;imageAspect=0;aspect=fixed;verticalLabelPosition=bottom;verticalAlign=top;image=https://m.media-amazon.com/images/I/715lLPSw2GL._AC_UF894,1000_QL80_.jpg;" vertex="1" parent="1">
          <mxGeometry x="830" y="530" width="115.71" height="83" as="geometry" />
        </mxCell>
        <mxCell id="ESVexAJs5nqCZsP6G0nZ-32" value="" style="shape=image;imageAspect=0;aspect=fixed;verticalLabelPosition=bottom;verticalAlign=top;image=https://m.media-amazon.com/images/I/715lLPSw2GL._AC_UF894,1000_QL80_.jpg;" vertex="1" parent="1">
          <mxGeometry x="682.85" y="530" width="115.71" height="83" as="geometry" />
        </mxCell>
        <mxCell id="ESVexAJs5nqCZsP6G0nZ-33" value="" style="verticalLabelPosition=bottom;outlineConnect=0;align=center;dashed=0;html=1;verticalAlign=top;shape=mxgraph.pid.misc.fan;" vertex="1" parent="1">
          <mxGeometry x="830" y="642" width="62" height="70" as="geometry" />
        </mxCell>
        <mxCell id="ESVexAJs5nqCZsP6G0nZ-34" value="" style="verticalLabelPosition=bottom;outlineConnect=0;align=center;dashed=0;html=1;verticalAlign=top;shape=mxgraph.pid.misc.fan;" vertex="1" parent="1">
          <mxGeometry x="682.85" y="642" width="62" height="70" as="geometry" />
        </mxCell>
        <mxCell id="ESVexAJs5nqCZsP6G0nZ-35" value="&lt;div&gt;Lüfter 1&lt;/div&gt;" style="text;html=1;strokeColor=none;fillColor=none;align=center;verticalAlign=middle;whiteSpace=wrap;rounded=0;" vertex="1" parent="1">
          <mxGeometry x="682.85" y="720" width="57.15" height="60" as="geometry" />
        </mxCell>
        <mxCell id="ESVexAJs5nqCZsP6G0nZ-36" value="Lüfter2" style="text;html=1;strokeColor=none;fillColor=none;align=center;verticalAlign=middle;whiteSpace=wrap;rounded=0;" vertex="1" parent="1">
          <mxGeometry x="830" y="720" width="70" height="60" as="geometry" />
        </mxCell>
        <mxCell id="ESVexAJs5nqCZsP6G0nZ-38" value="" style="endArrow=classic;html=1;rounded=0;entryX=0.5;entryY=0;entryDx=0;entryDy=0;entryPerimeter=0;exitX=0.25;exitY=1;exitDx=0;exitDy=0;" edge="1" parent="1" source="ESVexAJs5nqCZsP6G0nZ-32" target="ESVexAJs5nqCZsP6G0nZ-34">
          <mxGeometry width="50" height="50" relative="1" as="geometry">
            <mxPoint x="390" y="520" as="sourcePoint" />
            <mxPoint x="440" y="470" as="targetPoint" />
          </mxGeometry>
        </mxCell>
        <mxCell id="ESVexAJs5nqCZsP6G0nZ-39" value="" style="endArrow=classic;html=1;rounded=0;entryX=0.5;entryY=0;entryDx=0;entryDy=0;entryPerimeter=0;exitX=0.25;exitY=1;exitDx=0;exitDy=0;" edge="1" parent="1" source="ESVexAJs5nqCZsP6G0nZ-31" target="ESVexAJs5nqCZsP6G0nZ-33">
          <mxGeometry width="50" height="50" relative="1" as="geometry">
            <mxPoint x="390" y="520" as="sourcePoint" />
            <mxPoint x="440" y="470" as="targetPoint" />
          </mxGeometry>
        </mxCell>
        <mxCell id="ESVexAJs5nqCZsP6G0nZ-40" value="" style="endArrow=classic;html=1;rounded=0;entryX=0.5;entryY=0;entryDx=0;entryDy=0;exitX=1;exitY=0.444;exitDx=0;exitDy=0;exitPerimeter=0;" edge="1" parent="1" source="ESVexAJs5nqCZsP6G0nZ-6" target="ESVexAJs5nqCZsP6G0nZ-32">
          <mxGeometry width="50" height="50" relative="1" as="geometry">
            <mxPoint x="390" y="520" as="sourcePoint" />
            <mxPoint x="440" y="470" as="targetPoint" />
          </mxGeometry>
        </mxCell>
        <mxCell id="ESVexAJs5nqCZsP6G0nZ-41" value="" style="endArrow=classic;html=1;rounded=0;entryX=0.5;entryY=0;entryDx=0;entryDy=0;" edge="1" parent="1" target="ESVexAJs5nqCZsP6G0nZ-31">
          <mxGeometry width="50" height="50" relative="1" as="geometry">
            <mxPoint x="540" y="170" as="sourcePoint" />
            <mxPoint x="440" y="350" as="targetPoint" />
          </mxGeometry>
        </mxCell>
        <mxCell id="ESVexAJs5nqCZsP6G0nZ-42" value="HTTP 1.1 GET v1/sensor" style="text;html=1;strokeColor=none;fillColor=none;align=center;verticalAlign=middle;whiteSpace=wrap;rounded=0;" vertex="1" parent="1">
          <mxGeometry x="740" y="470" width="87" height="30" as="geometry" />
        </mxCell>
      </root>
    </mxGraphModel>
  </diagram>
</mxfile>
